<svg id="Layer_1" data-name="Layer 1" xmlns="http://www.w3.org/2000/svg" viewBox="0 0 120.5 79.37">
    <defs>
        <style>.cls-1{fill:#6e295b;}.cls-2{fill:#00bcb4;}.cls-3{fill:#fff;}.cls-4{fill:#010101;}.cls-5{fill:#6b1c57;}
        </style>
    </defs>
    <title>academy-logo-small</title>
    <path class="cls-1"
          d="M62,79.61,60.47,79c-1.22-.51-29.92-12.84-29.92-33.86V19.53l1.24-1.18a46.32,46.32,0,0,1,60.44,0l1.24,1.18V45.11c0,21-28.7,33.34-29.92,33.86L62,79.61ZM38.5,23.09v22c0,13.43,18,23.18,23.51,25.82,5.46-2.64,23.51-12.39,23.51-25.82v-22a38.51,38.51,0,0,0-47,0Z"
          transform="translate(0 -0.24)"/>
    <polygon class="cls-2" points="114.99 63.17 6.49 63.17 0 53.03 120.5 53.03 114.99 63.17"/>
    <path class="cls-3" d="M24.15,56.54H22.72v-.73h3.7v.73H25v4h-.83Z" transform="translate(0 -0.24)"/>
    <path class="cls-3"
          d="M28.86,58.78H28v1.77h-.83V55.81h2.08a1.44,1.44,0,0,1,1.55,1.48,1.33,1.33,0,0,1-1.12,1.39l1.16,1.86h-1Zm.31-2.24H28V58h1.13a.75.75,0,1,0,0-1.5Z"
          transform="translate(0 -0.24)"/>
    <path class="cls-3" d="M34.9,59.64H32.73l-.35.91h-.94l1.86-4.73h1l1.86,4.73h-.94ZM33,58.9h1.7l-.85-2.26Z"
          transform="translate(0 -0.24)"/>
    <path class="cls-3" d="M36.89,55.81h.83v4.73h-.83Z" transform="translate(0 -0.24)"/>
    <path class="cls-3" d="M39.75,57.17v3.38h-.83V55.81h.85l2.42,3.29V55.81H43v4.73h-.8Z"
          transform="translate(0 -0.24)"/>
    <path class="cls-3" d="M44.23,55.81h.83v4.73h-.83Z" transform="translate(0 -0.24)"/>
    <path class="cls-3" d="M47.1,57.17v3.38h-.83V55.81h.85l2.42,3.29V55.81h.83v4.73h-.8Z"
          transform="translate(0 -0.24)"/>
    <path class="cls-3"
          d="M53.82,55.73a2.23,2.23,0,0,1,1.91,1L55,57.1a1.51,1.51,0,0,0-1.23-.63,1.72,1.72,0,0,0,0,3.43,1.73,1.73,0,0,0,1.12-.43v-.74H53.53V58h2.24v1.77a2.57,2.57,0,0,1-2,.86,2.45,2.45,0,1,1,0-4.9Z"
          transform="translate(0 -0.24)"/>
    <path class="cls-3" d="M57.19,59.63a.5.5,0,1,1-.5.5A.5.5,0,0,1,57.19,59.63Z" transform="translate(0 -0.24)"/>
    <path class="cls-3"
          d="M60.71,58.69l-1.33,1.85h-1l1.77-2.43-1.67-2.31h1l1.22,1.74,1.21-1.74h1l-1.66,2.3L63,60.54H62Z"
          transform="translate(0 -0.24)"/>
    <path class="cls-3" d="M63.73,55.81H67v.73H64.56v1.23h2.36v.73H64.56v1.31H67v.73H63.73Z"
          transform="translate(0 -0.24)"/>
    <path class="cls-3"
          d="M68,55.81h2.33A1.21,1.21,0,0,1,71.72,57a1.06,1.06,0,0,1-.82,1.09,1.16,1.16,0,0,1,.92,1.16,1.24,1.24,0,0,1-1.38,1.28H68Zm2.16,2a.62.62,0,1,0,0-1.23H68.88v1.23Zm0,2a.64.64,0,0,0,.72-.66.65.65,0,0,0-.72-.65H68.88v1.31Z"
          transform="translate(0 -0.24)"/>
    <path class="cls-3" d="M72.85,55.81h.83v4.73h-.83Z" transform="translate(0 -0.24)"/>
    <path class="cls-3" d="M77.82,59.64H75.65l-.35.91h-.94l1.86-4.73h1l1.86,4.73h-.94Zm-1.94-.73h1.7l-.85-2.26Z"
          transform="translate(0 -0.24)"/>
    <path class="cls-3" d="M80.36,59.63a.5.5,0,1,1-.5.5A.5.5,0,0,1,80.36,59.63Z" transform="translate(0 -0.24)"/>
    <path class="cls-3"
          d="M81.48,58.18A2.39,2.39,0,0,1,84,55.73a2.14,2.14,0,0,1,1.9,1.06l-.71.36A1.4,1.4,0,0,0,84,56.47a1.71,1.71,0,0,0,0,3.42,1.39,1.39,0,0,0,1.19-.69l.71.36A2.15,2.15,0,0,1,84,60.63,2.39,2.39,0,0,1,81.48,58.18Z"
          transform="translate(0 -0.24)"/>
    <path class="cls-3"
          d="M88.82,55.73a2.45,2.45,0,1,1-2.42,2.45A2.35,2.35,0,0,1,88.82,55.73Zm0,.74a1.72,1.72,0,1,0,1.57,1.71A1.57,1.57,0,0,0,88.82,56.47Z"
          transform="translate(0 -0.24)"/>
    <path class="cls-3" d="M96.3,57l-1.45,3.51h-.35L93,57v3.51h-.83V55.81h1.17l1.28,3.11L96,55.81h1.17v4.73H96.3Z"
          transform="translate(0 -0.24)"/>
    <rect class="cls-4" y="30.06" width="120.5" height="22.97"/>
    <path class="cls-3"
          d="M15.52,49.14V46.95h.84l-.75-2.29H11.3l-.75,2.29h.84v2.19H6.6V46.95h.75L10.87,36.3h-1V34.11h7.28V36.3h-1.1l3.53,10.64h.75v2.19ZM15,43l-1.57-4.78L11.85,43Z"
          transform="translate(0 -0.24)"/>
    <path class="cls-3"
          d="M17,34.26v1.89H15.86l3.62,10.94h.71V49H15.67V47.09h.9l-.85-2.58H11.2l-.85,2.58h.9V49H6.75V47.09h.71l3.62-10.94H10V34.26h7m-5.37,8.88h3.6l-1.78-5.4-1.82,5.4M17.32,34H9.74v2.48h.93L7.24,46.8H6.45v2.48h5.09V46.8h-.79l.66-2h4.1l.66,2h-.79v2.48h5.11V46.8H19.7L16.27,36.45h1V34Zm-5.26,8.88,1.41-4.17,1.37,4.17Z"
          transform="translate(0 -0.24)"/>
    <polygon class="cls-3"
             points="24.87 48.89 22.61 46.63 22.61 36.13 24.87 33.87 31.41 33.87 33.67 36.13 33.67 38.69 30.63 38.69 30.63 37.01 29.68 36.06 26.55 36.06 25.62 36.99 25.62 45.77 26.55 46.7 29.68 46.7 30.63 45.75 30.63 44.17 33.72 44.17 33.72 46.63 31.46 48.89 24.87 48.89"/>
    <path class="cls-3"
          d="M31.35,34.26l2.18,2.18v2.34H30.78V37.2l-1-1H26.49l-1,1v8.9l1,1h3.24l1-1V44.56h2.79v2.25L31.39,49H24.93l-2.18-2.18V36.44l2.18-2.18h6.42m.12-.29H24.81l-.09.09-2.18,2.18-.09.09V46.93l.09.09,2.18,2.18.09.09h6.71l.09-.09L33.78,47l.09-.09V44.27H30.48v1.66l-.87.87h-3L25.77,46V37.29l.85-.84h3l.87.87v1.76h3.34V36.32l-.09-.09-2.18-2.18L31.47,34Z"
          transform="translate(0 -0.24)"/>
    <path class="cls-3"
          d="M44.78,49.14V46.95h.84l-.75-2.29H40.56l-.76,2.29h.84v2.19H35.86V46.95h.75L40.13,36.3h-1V34.11h7.28V36.3h-1.1l3.53,10.64h.75v2.19ZM44.3,43l-1.57-4.79L41.11,43Z"
          transform="translate(0 -0.24)"/>
    <path class="cls-3"
          d="M46.28,34.26v1.89H45.12l3.62,10.94h.71V49H44.93V47.09h.9L45,44.51H40.46l-.85,2.58h.9V49H36V47.09h.71l3.62-10.94h-1V34.26h7M40.9,43.14h3.6l-1.78-5.4-1.82,5.4M46.57,34H39v2.48h.93L36.5,46.8h-.79v2.48H40.8V46.8H40l.66-2h4.1l.66,2h-.79v2.48h5.11V46.8H49L45.53,36.45h1V34Zm-5.26,8.88,1.41-4.17,1.37,4.17Z"
          transform="translate(0 -0.24)"/>
    <path class="cls-3"
          d="M51.54,49.14V46.95h1V36.3h-1V34.11h9.09l2.27,2.26V46.87l-2.27,2.26Zm7.4-2.19.93-.93V37.23l-.93-.93H55.55V46.95Z"
          transform="translate(0 -0.24)"/>
    <path class="cls-3"
          d="M60.57,34.26l2.18,2.18V46.81L60.57,49H51.69V47.09h1V36.15h-1V34.26h8.88M55.41,47.09H59l1-1v-8.9l-1-1h-3.6V47.09M60.69,34h-9.3v2.48h1V46.8h-1v2.48h9.3l.09-.09L63,47l.09-.09V36.32L63,36.23l-2.18-2.18L60.69,34Zm-5,2.48h3.18l.84.84V46l-.84.85H55.7V36.45Z"
          transform="translate(0 -0.24)"/>
    <polygon class="cls-3"
             points="65.92 48.89 65.92 46.7 66.89 46.7 66.89 36.06 65.92 36.06 65.92 33.87 76.56 33.87 76.56 36.72 74.35 36.72 74.35 36.06 69.94 36.06 69.94 40.29 72.13 40.29 72.13 39.62 74.31 39.62 74.31 43.14 72.13 43.14 72.13 42.48 69.94 42.48 69.94 46.7 74.35 46.7 74.35 46.04 76.56 46.04 76.56 48.89 65.92 48.89"/>
    <path class="cls-3"
          d="M76.42,34.26v2.56H74.5v-.66H69.79v4.52h2.49V40h1.89v3.22H72.27v-.66H69.79v4.52H74.5v-.66h1.92V49H66.07V47.09h1V36.15h-1V34.26H76.42m.29-.29H65.77v2.48h1V46.8h-1v2.48H76.71V46.14H74.2v.66H70.08V42.87H72v.66h2.48V39.72H72v.66h-1.9V36.45H74.2v.66h2.51V34Z"
          transform="translate(0 -0.24)"/>
    <polygon class="cls-3"
             points="91 48.89 91 46.7 92 46.7 92 39.05 87.62 46.36 83.25 39.05 83.25 46.7 84.24 46.7 84.24 48.89 79.23 48.89 79.23 46.7 80.2 46.7 80.2 36.06 79.23 36.06 79.23 33.87 83.13 33.87 87.62 41.31 92.08 33.87 96.03 33.87 96.03 36.06 95.01 36.06 95.01 46.7 96.03 46.7 96.03 48.89 91 48.89"/>
    <path class="cls-3"
          d="M95.88,34.26v1.89h-1V47.09h1V49H91.15V47.09h1V38.76l-4.52,7.55L83.1,38.76v8.33h1V49H79.38V47.09h1V36.15h-1V34.26h3.67l4.57,7.58,4.55-7.58h3.72m.29-.29H92l-.09.14-4.29,7.16L83.3,34.11,83.22,34H79.09v2.48h1V46.8h-1v2.48h5.3V46.8h-1v-7l4,6.64.25.42.25-.42,4-6.64v7h-1v2.48h5.32V46.8h-1V36.45h1V34Z"
          transform="translate(0 -0.24)"/>
    <polygon class="cls-3"
             points="104.03 49.08 104.03 46.7 105.02 46.7 105.02 41.87 99.19 36.06 98.11 36.06 98.11 33.87 104.42 33.87 104.42 36.06 103.18 36.06 106.52 39.4 109.86 36.06 108.62 36.06 108.62 33.87 114.74 33.87 114.74 36.06 113.9 36.06 108.04 41.87 108.04 46.7 109.04 46.7 109.04 49.08 104.03 49.08"/>
    <path class="cls-3"
          d="M114.6,34.26v1.89h-.76l-5.94,5.9v5h1v2.08h-4.71V47.09h1v-5l-5.92-5.9h-1V34.26h6v1.89h-1.44l3.69,3.69,3.69-3.69h-1.44V34.26h5.83m.29-.29h-6.41v2.48h1l-3,3-3-3h1V34H98v2.48h1.17l5.75,5.72V46.8h-1v2.67h5.3V46.8h-1V42.17L114,36.45h.93V34Z"
          transform="translate(0 -0.24)"/>
    <path class="cls-4" d="M49.5,20.51C51,23.14,56,25.07,62,25.07s11-1.91,12.49-4.52V13.83L62,17.87l-12.5-4Z"
          transform="translate(0 -0.24)"/>
    <path class="cls-3"
          d="M62,25.35c-5.95,0-11.19-1.93-12.76-4.7a.28.28,0,0,1,0-.14V13.83a.28.28,0,0,1,.12-.23.28.28,0,0,1,.25,0l12.41,4,12.42-4a.28.28,0,0,1,.37.27v6.72a.29.29,0,0,1,0,.14C73.16,23.44,67.92,25.35,62,25.35ZM49.78,20.44C51.3,23,56.32,24.79,62,24.79S72.69,23,74.23,20.48V14.22L62.1,18.14a.28.28,0,0,1-.17,0L49.79,14.22Z"
          transform="translate(0 -0.24)"/>
    <path class="cls-4"
          d="M62,17.69h-.08L35.75,9.37a.28.28,0,0,1,0-.54L62.16.54h.17l26.41,8.3a.28.28,0,0,1,0,.54l-26.64,8.3Z"
          transform="translate(0 -0.24)"/>
    <path class="cls-3"
          d="M62.24.81l26.41,8.3L62,17.41,35.84,9.11,62.24.81m0-.56-.17,0L35.67,8.57a.56.56,0,0,0,0,1.07l26.17,8.3L62,18l.17,0,26.64-8.3a.56.56,0,0,0,0-1.07L62.41.27l-.17,0Z"
          transform="translate(0 -0.24)"/>
    <rect class="cls-3" x="44.71" y="11.9" width="0.79" height="14.78"/>
    <polygon class="cls-5"
             points="65.33 8.68 60.08 7.25 45.4 11.9 45.4 26.68 47.4 25.46 50.23 28.18 50.23 13.53 65.33 8.68"/>
</svg>